<?xml version="1.0" encoding="utf-8"?>
<svg viewBox="0 146.57 968.337 178.673" width="968.337" height="178.673" xmlns="http://www.w3.org/2000/svg" xmlns:bx="https://boxy-svg.com">
  <g id="Identity" stroke="none" stroke-width="1" fill="none" fill-rule="evenodd" transform="matrix(1, 0, 0, 1, 5.962322, 131.705322)">
    <g id="Logo-BW" transform="translate(-514.000000, -412.000000)">
      <g id="Logo" transform="translate(514.000000, 412.000000)">
        <g id="Badge" transform="translate(0.000000, 44.000000)">
          <rect id="Square" fill-opacity="0.155594406" fill="#373529" y="17.69" width="99.31" height="99.31" rx="28.104" style="" x="10.793" ry="28.104" bx:origin="0.495868 0.5"/>
        </g>
      </g>
    </g>
  </g>
  <g transform="matrix(0.028677, 0, 0, -0.028677, -24.176466, 310.57135)" fill="#000000" stroke="none" style="">
    <path d="M9318 4251 c-47 -10 -141 -67 -179 -109 -17 -18 -42 -56 -57 -85 -24 -46 -27 -63 -27 -152 0 -89 3 -106 27 -151 35 -67 108 -138 177 -172 48 -23 69 -27 141 -27 76 0 93 4 150 32 81 40 108 64 152 133 145 228 -5 519 -275 535 -40 2 -89 0 -109 -4z"/>
    <path d="M11493 4251 c-102 -26 -216 -136 -248 -238 -25 -78 -17 -191 18 -259 34 -66 107 -138 176 -172 48 -23 69 -27 141 -27 76 0 93 4 150 32 74 36 114 70 152 129 44 68 61 136 56 213 -13 182 -152 316 -337 326 -42 2 -91 1 -108 -4z"/>
    <path d="M21935 4136 c-5 -2 -50 -9 -100 -16 -124 -17 -263 -61 -337 -107 -21 -13 -40 -23 -43 -23 -6 0 -75 -49 -85 -60 -3 -3 -19 -16 -36 -28 -18 -12 -56 -54 -87 -94 -114 -151 -157 -275 -157 -457 l0 -110 -32 -6 c-18 -4 -122 -5 -230 -3 -158 2 -199 0 -203 -10 -10 -27 -5 -451 5 -457 6 -4 104 -6 219 -5 179 1 211 -2 225 -15 14 -15 16 -111 16 -1014 0 -762 3 -1000 12 -1009 13 -13 491 -18 523 -6 15 6 16 84 9 1008 -6 943 -6 1003 11 1019 16 16 48 18 383 17 292 -1 367 1 373 12 11 17 11 429 1 446 -7 10 -91 13 -384 15 -207 1 -380 5 -384 9 -13 14 16 190 42 244 26 54 123 154 150 154 8 0 25 6 37 14 40 26 185 49 267 42 87 -6 213 -29 252 -45 23 -9 29 -7 36 7 15 28 22 409 9 420 -30 25 -197 51 -367 57 -63 3 -119 3 -125 1z"/>
    <path d="M7040 4034 c-41 -8 -96 -21 -121 -29 -26 -8 -56 -15 -67 -15 -12 0 -23 -4 -27 -9 -3 -5 -20 -13 -38 -16 -32 -7 -164 -68 -222 -102 -80 -48 -212 -164 -269 -238 -133 -172 -194 -358 -183 -560 5 -92 29 -199 60 -265 73 -158 217 -295 427 -407 75 -41 275 -120 360 -143 25 -7 56 -16 70 -21 25 -9 354 -94 420 -109 80 -17 332 -111 355 -131 5 -5 15 -9 22 -9 21 0 164 -103 200 -145 55 -63 73 -114 73 -211 0 -66 -5 -94 -24 -136 -42 -96 -167 -189 -301 -227 -99 -27 -127 -31 -231 -37 -140 -9 -346 15 -489 56 -195 55 -359 118 -500 193 -11 6 -33 17 -50 26 -16 8 -60 34 -98 58 -37 24 -69 43 -72 43 -3 0 -45 28 -94 61 -56 39 -95 60 -105 56 -14 -6 -16 -39 -16 -285 0 -276 0 -279 23 -299 43 -41 244 -160 372 -222 72 -34 138 -67 147 -72 10 -5 26 -9 36 -9 10 0 22 -4 27 -9 12 -11 216 -73 310 -94 215 -48 531 -56 765 -19 158 25 362 110 501 208 162 114 297 299 339 465 35 133 36 365 4 478 -76 264 -287 474 -624 618 -19 8 -50 21 -68 29 -35 15 -118 43 -192 64 -103 29 -140 38 -230 59 -52 12 -122 29 -155 37 -33 9 -78 20 -100 25 -68 17 -267 81 -330 108 -198 82 -291 209 -264 357 6 32 20 79 31 103 23 52 98 134 142 157 75 40 123 62 156 72 141 44 146 44 348 40 108 -3 217 -10 242 -16 25 -6 79 -18 120 -28 92 -20 242 -67 330 -102 98 -38 305 -139 364 -177 72 -46 125 -75 136 -75 13 0 13 545 1 569 -13 23 -370 201 -404 201 -7 0 -17 4 -22 9 -15 14 -171 60 -290 86 -201 45 -298 55 -510 54 -134 -1 -237 -6 -285 -15z"/>
    <path d="M10215 4008 c-3 -7 -4 -751 -3 -1653 l3 -1640 257 -3 c223 -2 258 0 272 14 14 14 16 169 16 1643 0 1252 -3 1630 -12 1639 -18 18 -527 17 -533 0z"/>
    <path d="M25627 4013 c-4 -3 -7 -745 -7 -1649 0 -1488 1 -1642 16 -1648 9 -3 127 -6 263 -6 179 0 250 3 259 12 9 9 12 389 12 1649 0 1483 -1 1637 -16 1643 -21 8 -519 8 -527 -1z"/>
    <path d="M28683 4012 c-10 -6 -13 -127 -15 -527 -3 -598 4 -564 -97 -469 -138 130 -301 213 -507 258 -97 22 -333 21 -422 0 -143 -34 -269 -77 -332 -115 -8 -4 -31 -16 -50 -26 -19 -9 -37 -19 -40 -23 -3 -3 -24 -18 -48 -33 -61 -40 -87 -62 -177 -152 -97 -97 -115 -118 -169 -204 -154 -241 -223 -493 -213 -771 6 -156 30 -295 72 -410 22 -61 97 -214 107 -218 4 -2 8 -8 8 -14 0 -24 126 -181 217 -269 189 -184 375 -285 623 -339 67 -14 401 -8 475 9 84 19 276 102 305 131 3 3 23 17 45 32 22 14 51 37 65 50 140 129 140 129 140 -63 0 -135 1 -139 23 -144 12 -3 132 -4 267 -3 l245 3 5 1643 c3 1031 1 1647 -4 1653 -12 11 -505 12 -523 1z m-592 -1241 c392 -100 642 -465 599 -875 -18 -177 -99 -344 -229 -474 -78 -77 -128 -112 -234 -162 -197 -93 -434 -95 -630 -5 -283 129 -467 416 -467 726 0 382 245 703 605 794 80 20 269 18 356 -4z"/>
    <path d="M 1698 3583.387 C 1663 3553.387 1651 3526.387 1639 3455.387 C 1625 3366.387 1597 3309.387 1558 3289.387 C 1540 3280.387 1515 3263.387 1503 3252.387 L 1480 3232.387 L 1480 2336.387 C 1480 1796.387 1484 1404.387 1490 1350.387 C 1505 1222.387 1524 1152.387 1572 1055.387 C 1606 986.387 1630 953.387 1704 880.387 C 1777 807.387 1811 781.387 1880 747.387 C 2058 660.387 2124 655.387 3165 655.387 C 4206 655.387 4272 660.387 4450 747.387 C 4519 781.387 4553 807.387 4626 880.387 C 4700 953.387 4724 986.387 4758 1055.387 C 4848 1237.387 4850 1268.387 4850 2312.387 C 4850 3154.387 4849 3185.387 4830 3229.387 C 4816 3263.387 4804 3276.387 4783 3281.387 C 4768 3284.387 4748 3290.387 4740 3293.387 C 4732 3297.387 4330 3302.387 3848 3305.387 L 2970 3310.387 L 2944 3336.387 C 2923 3357.387 2916 3377.387 2910 3431.387 C 2900 3515.387 2890 3543.387 2855 3575.387 L 2828 3600.387 L 2277 3603.387 L 1725 3605.387 L 1698 3583.387 Z"/>
    <path d="M13365 3274 c-144 -35 -212 -58 -298 -99 -113 -55 -153 -78 -181 -104 -12 -12 -26 -21 -31 -21 -4 0 -33 -21 -64 -47 -208 -173 -378 -436 -435 -673 -59 -242 -60 -453 -4 -665 36 -135 120 -324 185 -414 103 -142 198 -241 303 -316 30 -22 57 -42 60 -45 8 -8 49 -30 120 -66 228 -113 347 -138 615 -131 174 4 263 14 315 35 14 5 43 15 65 22 74 23 209 92 300 154 120 81 335 296 335 334 0 6 4 12 8 14 10 4 63 94 93 158 12 25 26 53 31 63 5 11 8 20 6 22 -15 13 -60 30 -93 36 -22 4 -87 20 -145 37 -58 16 -138 38 -177 47 -86 21 -89 20 -136 -69 -20 -38 -65 -94 -122 -151 -73 -73 -106 -98 -176 -132 -205 -100 -396 -110 -607 -31 -159 59 -277 158 -376 312 -20 31 -36 62 -36 69 0 7 -4 17 -9 23 -13 14 -58 153 -72 224 -28 141 9 365 82 505 9 17 27 50 40 75 30 58 180 206 252 248 155 93 375 134 522 98 222 -54 374 -159 489 -338 20 -31 36 -61 36 -66 0 -5 8 -16 18 -26 20 -17 50 -15 132 9 25 8 83 24 130 35 47 12 101 28 120 35 19 7 51 15 71 19 72 13 70 26 -35 211 -113 198 -318 391 -526 496 -109 54 -169 75 -335 113 -92 21 -383 21 -470 0z"/>
    <path d="M16130 3273 c-207 -47 -328 -98 -490 -207 -70 -47 -236 -203 -289 -271 -64 -82 -165 -262 -191 -340 -4 -11 -13 -36 -19 -55 -42 -120 -53 -188 -58 -375 -4 -177 -3 -198 20 -300 24 -107 40 -161 58 -197 5 -10 9 -26 9 -36 0 -10 4 -22 9 -28 5 -5 28 -45 51 -89 24 -44 61 -107 83 -140 65 -96 250 -274 356 -344 51 -33 97 -61 101 -61 5 0 24 -9 42 -19 61 -36 202 -84 325 -111 68 -15 401 -15 467 1 284 65 505 186 686 376 103 108 129 142 182 232 42 73 105 203 116 241 6 19 17 58 26 85 50 161 61 417 25 601 -11 60 -25 113 -30 119 -5 5 -9 21 -9 36 0 15 -4 31 -10 34 -5 3 -10 13 -10 21 0 15 -66 154 -101 214 -82 138 -241 308 -375 401 -123 87 -375 199 -446 199 -9 0 -43 7 -75 15 -76 20 -361 19 -453 -2z m375 -498 c205 -42 361 -140 480 -298 47 -61 113 -189 134 -257 37 -122 38 -315 3 -446 -10 -39 -41 -113 -68 -165 -39 -76 -67 -112 -142 -187 -85 -86 -103 -99 -205 -147 -135 -64 -199 -79 -337 -79 -145 0 -202 14 -360 87 -131 60 -273 211 -347 367 -100 213 -97 495 8 703 59 114 180 250 283 316 161 102 375 143 551 106z"/>
    <path d="M19155 3274 c-203 -49 -338 -119 -488 -253 -38 -34 -73 -59 -78 -56 -5 4 -9 62 -9 130 0 68 -4 126 -9 130 -6 3 -123 6 -261 6 -180 0 -255 -3 -266 -12 -12 -10 -14 -186 -14 -1248 0 -949 3 -1240 12 -1249 14 -14 504 -17 525 -4 9 6 13 184 16 717 3 473 8 727 15 760 21 95 34 130 80 225 37 76 61 110 122 171 73 73 94 89 170 124 96 45 147 55 277 55 142 0 203 -12 299 -60 149 -73 255 -215 298 -400 18 -80 20 -131 23 -837 l4 -753 22 -5 c12 -3 132 -4 267 -3 l245 3 3 860 c2 749 0 869 -13 930 -22 97 -51 176 -91 246 -19 34 -34 63 -34 65 0 3 -18 28 -39 57 -46 61 -156 170 -223 220 -47 35 -267 147 -289 147 -7 0 -26 4 -43 9 -135 42 -398 54 -521 25z"/>
    <path d="M23675 3275 c-27 -7 -77 -18 -110 -26 -53 -11 -90 -25 -195 -71 -23 -10 -50 -23 -103 -51 -106 -57 -287 -209 -358 -301 -82 -106 -185 -275 -201 -331 -4 -11 -15 -44 -27 -73 -53 -142 -65 -217 -66 -417 0 -197 10 -275 54 -412 67 -209 166 -369 326 -528 195 -196 415 -314 679 -365 73 -15 412 -15 450 -1 15 6 37 11 49 11 34 0 172 47 254 86 39 19 74 34 77 34 8 0 133 82 171 111 55 44 211 198 240 240 17 22 40 53 52 68 34 43 137 250 158 316 10 33 21 69 25 80 39 105 53 445 25 580 -33 159 -44 192 -115 340 -175 364 -499 612 -926 709 -89 20 -383 21 -459 1z m360 -499 c253 -50 440 -192 559 -421 67 -129 80 -190 81 -370 0 -174 -6 -202 -68 -335 -91 -194 -265 -350 -468 -420 -270 -93 -606 -5 -804 211 -70 76 -142 195 -167 274 -62 198 -62 350 0 550 39 128 155 283 282 377 159 118 394 172 585 134z"/>
    <path d="M30715 3274 c-129 -32 -210 -56 -258 -80 -28 -13 -55 -24 -59 -24 -5 0 -34 -16 -64 -35 -30 -19 -56 -35 -59 -35 -18 0 -149 -107 -234 -192 -112 -111 -177 -202 -246 -343 -61 -126 -70 -150 -93 -235 -35 -136 -42 -194 -42 -361 0 -192 20 -302 80 -454 23 -58 104 -216 116 -226 8 -6 14 -18 14 -25 0 -8 5 -14 10 -14 6 0 10 -6 10 -12 1 -24 162 -201 245 -268 85 -69 286 -190 315 -190 6 0 29 -8 53 -18 127 -56 199 -66 447 -67 211 0 269 6 385 39 152 44 301 114 425 201 82 58 233 199 278 260 51 70 74 110 75 134 2 32 -23 42 -208 81 -22 4 -53 13 -70 18 -16 6 -65 20 -108 32 l-78 21 -39 -39 c-112 -116 -279 -202 -483 -251 -70 -16 -283 -14 -363 5 -86 20 -256 90 -274 113 -3 3 -27 24 -55 46 -52 41 -85 74 -85 84 0 3 -11 19 -25 35 -44 52 -115 222 -115 277 0 18 27 19 1005 19 948 0 1006 1 1013 18 4 9 7 94 7 187 -1 176 -9 229 -57 390 -100 329 -342 623 -648 787 -36 19 -78 39 -95 45 -116 43 -152 54 -240 72 -122 26 -384 28 -480 5z m460 -506 c166 -59 286 -150 387 -293 54 -78 112 -218 106 -257 l-3 -23 -714 -3 c-505 -1 -718 1 -727 9 -20 16 -8 62 46 174 108 222 276 354 535 419 11 2 83 3 160 1 117 -2 151 -7 210 -27z"/>
    <path d="M33720 3246 c-205 -46 -371 -151 -488 -308 -67 -92 -72 -84 -72 127 0 85 -4 156 -9 160 -6 3 -123 6 -261 6 -180 0 -255 -3 -266 -12 -12 -10 -14 -186 -14 -1248 0 -949 3 -1240 12 -1249 9 -9 80 -12 259 -12 136 0 254 3 263 6 14 6 16 72 16 648 1 815 4 845 121 1042 13 22 31 49 39 60 22 28 132 124 143 124 5 0 21 8 35 18 44 30 152 69 227 82 78 13 211 9 324 -9 61 -10 75 -10 82 1 10 15 12 501 3 535 -4 12 -19 26 -36 32 -41 15 -309 12 -378 -3z"/>
    <path d="M9134 3228 c-7 -10 -5 -2498 1 -2509 7 -10 493 -13 519 -3 14 6 16 125 16 1255 0 1044 -2 1250 -14 1255 -20 8 -517 10 -522 2z"/>
    <path d="M11558 3232 c-189 -2 -248 -5 -248 -15 -2 -1061 1 -2491 5 -2498 7 -11 505 -12 523 -1 10 7 12 264 10 1256 -3 1239 -3 1249 -23 1255 -11 3 -131 5 -267 3z"/>
  </g>
</svg>